<?xml version="1.0" encoding="UTF-8" standalone="no"?>
<!-- Created with Inkscape (http://www.inkscape.org/) -->
<svg
   xmlns:dc="http://purl.org/dc/elements/1.1/"
   xmlns:cc="http://web.resource.org/cc/"
   xmlns:rdf="http://www.w3.org/1999/02/22-rdf-syntax-ns#"
   xmlns:svg="http://www.w3.org/2000/svg"
   xmlns="http://www.w3.org/2000/svg"
   xmlns:sodipodi="http://inkscape.sourceforge.net/DTD/sodipodi-0.dtd"
   xmlns:inkscape="http://www.inkscape.org/namespaces/inkscape"
   id="svg2"
   sodipodi:version="0.32"
   inkscape:version="0.43"
   width="464.27997pt"
   height="117.89pt"
   sodipodi:docbase="/home/seb/Desktop/streetart"
   sodipodi:docname="sticks.svg"
   version="1.0">
  <metadata
     id="metadata7">
    <rdf:RDF>
      <cc:Work
         rdf:about="">
        <dc:format>image/svg+xml</dc:format>
        <dc:type
           rdf:resource="http://purl.org/dc/dcmitype/StillImage" />
        <dc:title>stick</dc:title>
        <dc:date>03 13 2007</dc:date>
        <dc:creator>
          <cc:Agent>
            <dc:title>SRD</dc:title>
          </cc:Agent>
        </dc:creator>
        <dc:subject>
          <rdf:Bag>
            <rdf:li>stick</rdf:li>
            <rdf:li>wood</rdf:li>
          </rdf:Bag>
        </dc:subject>
        <dc:description>a stick of wood</dc:description>
        <cc:license
           rdf:resource="http://artlibre.org/licence.php/lalgb.html" />
      </cc:Work>
      <cc:License
         rdf:about="http://artlibre.org/licence.php/lalgb.html">
        <cc:permits
           rdf:resource="http://web.resource.org/cc/Reproduction" />
        <cc:permits
           rdf:resource="http://web.resource.org/cc/Distribution" />
        <cc:permits
           rdf:resource="http://web.resource.org/cc/DerivativeWorks" />
        <cc:requires
           rdf:resource="http://web.resource.org/cc/ShareAlike" />
        <cc:requires
           rdf:resource="http://web.resource.org/cc/Notice" />
        <cc:requires
           rdf:resource="http://web.resource.org/cc/Attribution" />
      </cc:License>
    </rdf:RDF>
  </metadata>
  <defs
     id="defs5" />
  <sodipodi:namedview
     inkscape:window-height="945"
     inkscape:window-width="1270"
     inkscape:pageshadow="2"
     inkscape:pageopacity="0.0"
     borderopacity="1.0"
     bordercolor="#666666"
     pagecolor="#ffffff"
     id="base"
     inkscape:zoom="0.36286659"
     inkscape:cx="411.28299"
     inkscape:cy="319.3146"
     inkscape:window-x="0"
     inkscape:window-y="25"
     inkscape:current-layer="svg2"
     inkscape:showpageshadow="true"
     showborder="true" />
  <g
     transform="matrix(0.201397,0.55378,0.55378,-0.201397,-55.68847,-28.18303)"
     id="g3068">
    <path
       style="fill:#ffffff;fill-opacity:1;fill-rule:evenodd;stroke:#000000;stroke-width:1px;stroke-linecap:butt;stroke-linejoin:miter;stroke-opacity:1"
       d="M 195.6642,72.663271 L 146.05919,75.419105 L 117.12294,91.954108 L 231.49004,327.5779 L 307.27547,503.95126 L 343.10131,636.23128 L 358.25839,724.41796 L 380.30506,725.79588 L 398.21798,694.10379 L 439.55549,757.48797 L 496.05008,937.99508 L 533.25384,931.1055 L 518.09675,863.58757 L 547.03301,893.90174 L 580.10301,881.50049 L 512.58508,778.15672 L 429.91007,579.73669 L 354.12464,410.25291 L 428.53215,426.78791 L 435.42174,390.96207 L 330.70005,306.90914 L 264.56004,206.32121 L 208.06545,86.44244 L 195.6642,72.663271 z "
       id="path3070" />
    <path
       id="path3072"
       d="M 488.50043,943.56759 C 485.91212,941.45031 482.24395,931.23787 480.34896,920.87327 C 474.04789,886.40996 454.46467,820.90068 441.1347,789.69484 C 433.89673,772.7506 427.97476,757.51291 427.97476,755.83341 C 427.97476,752.05545 403.38849,713.40502 399.42838,710.95752 C 397.84441,709.97859 393.46124,714.7347 389.68795,721.52666 C 382.9906,733.58197 382.47547,733.87314 368.02867,733.76897 C 347.51118,733.62105 343.90996,729.80648 343.84522,708.15282 C 343.71246,663.75722 332.15355,607.38356 309.5883,541.07973 C 280.63308,456.00012 263.95623,414.51739 246.06699,383.07402 C 239.71661,371.91218 233.54277,359.51812 232.34731,355.53174 C 231.15189,351.54536 227.20511,342.41295 223.57675,335.23743 C 219.94836,328.06197 213.7225,315.01563 209.74148,306.24556 C 187.66414,257.60992 157.25474,194.49583 134.67918,150.45538 C 120.59089,122.97195 109.06413,97.186229 109.06413,93.153812 C 109.06413,83.517142 121.72326,75.852532 147.21599,70.054332 C 167.67717,65.400532 198.20185,64.194732 203.47909,67.831812 C 210.01128,72.333792 226.37673,99.416749 235.27976,120.4583 C 240.39557,132.54907 251.99766,157.44477 261.06217,175.78213 C 311.90438,278.635 365.35936,343.82187 422.90119,373.14025 C 441.14122,382.43376 445.36989,385.84912 445.36989,391.28751 C 445.36989,401.72939 436.90858,423.99973 430.86244,429.47146 C 425.70374,434.14002 424.37478,434.08832 407.11682,428.54766 C 379.2745,419.60894 367.09183,417.84331 367.09183,422.74688 C 367.09183,424.98998 372.79001,438.50764 379.75446,452.78623 C 386.71892,467.06475 393.41387,482.00879 394.63217,485.99517 C 395.85043,489.98155 401.69911,503.0279 407.62919,514.98704 C 421.90326,543.77342 449.57029,607.8955 470.17542,659.94641 C 487.70597,704.23063 510.88329,755.29694 525.23316,781.25453 C 536.02379,800.77383 573.99822,858.18774 584.89476,871.45755 L 593.12077,881.47517 L 587.24469,887.72993 C 581.09175,894.27943 556.65714,903.47815 545.41255,903.47815 C 541.80376,903.47815 536.6617,900.54272 533.98572,896.95497 C 530.73159,892.59207 529.60798,892.06964 530.59283,895.37744 C 531.40272,898.09754 533.69722,908.22386 535.69172,917.88029 C 538.92443,933.5315 538.7862,935.9694 534.41837,940.33723 C 527.97414,946.78145 495.24414,949.08404 488.50043,943.56759 z M 519.61048,928.35541 C 520.47887,926.09239 517.17635,912.16826 512.2715,897.41293 C 502.43845,867.8318 500.76776,849.20391 507.70891,846.54034 C 516.66244,843.10454 526.10188,848.55403 534.74537,862.14872 C 549.91525,886.00822 554.5596,889.36537 564.07172,883.34709 C 569.62793,879.83168 565.43999,870.61047 546.88044,845.4944 C 515.67167,803.26055 487.85585,747.46099 450.01882,651.18643 C 437.81211,620.12697 419.91175,577.75448 410.24026,557.02526 C 400.56877,536.2961 386.40332,505.63719 378.76149,488.89436 C 371.11967,472.15158 359.92559,447.76669 353.88577,434.70579 C 337.78334,399.88481 342.11092,397.44692 398.18483,409.75104 C 415.16053,413.47591 419.96886,413.65146 423.55272,410.67713 C 431.31008,404.23907 428.96344,393.87202 418.5524,388.58654 C 395.25184,376.75718 369.22711,356.78199 348.03593,334.46184 C 305.37947,289.53279 282.96005,254.33813 240.8831,166.25012 C 223.52631,129.91374 205.82077,95.993239 201.53739,90.871252 C 194.07801,81.951412 192.88674,81.567762 173.29788,81.776672 C 152.29524,82.000662 131.09494,88.797142 128.24678,96.219349 C 127.4475,98.302219 141.121,128.24981 158.63229,162.76953 C 176.14361,197.28928 201.55171,249.89011 215.09477,279.66027 C 228.63783,309.43043 248.00568,350.09577 258.13446,370.02768 C 281.74358,416.48692 293.39704,444.57237 312.86897,501.9407 C 344.77533,595.94346 351.55424,623.15143 358.61336,685.5411 C 361.03702,706.96198 363.22162,715.95288 366.28875,717.12984 C 372.10139,719.36036 375.69151,712.86348 375.74498,700.01735 C 375.78725,689.86718 381.62456,680.24072 387.7372,680.24072 C 400.42329,680.24072 427.07871,711.04137 432.22004,731.64117 C 433.32269,736.05927 436.01493,741.66163 438.20278,744.09092 C 442.43887,748.79441 457.36127,783.25404 464.5381,804.90578 C 475.93408,839.28631 491.44438,892.37669 494.6336,907.92008 C 496.58615,917.43617 499.50667,926.85284 501.12364,928.84604 C 505.11886,933.7708 517.66011,933.43797 519.61048,928.35541 z M 477.54458,792.87641 C 472.42476,778.18971 473.70878,773.42066 480.16014,783.16187 C 486.17911,792.25022 487.82692,802.00659 483.34295,802.00659 C 481.90437,802.00659 479.2951,797.89801 477.54458,792.87641 z M 459.34,750.87499 C 447.25607,731.22455 439.57151,713.77243 439.57151,705.97936 C 439.57151,699.65867 443.30126,698.89798 447.78761,704.30366 C 452.16167,709.57409 471.83309,761.75601 470.71281,765.11681 C 470.20728,766.63343 465.08952,760.22463 459.34,750.87499 z M 401.34828,638.1093 C 394.46639,629.13979 385.31945,617.24202 381.02179,611.66987 C 371.20853,598.94644 362.9079,577.60134 365.3244,571.30402 C 368.03386,564.24325 374.10664,570.41768 378.33572,584.53313 C 382.04746,596.92173 384.05164,598.30937 389.90066,592.54031 C 392.84554,589.6357 394.39936,590.03341 397.72847,594.54402 C 403.32062,602.12081 402.96771,604.64711 395.95469,607.24139 C 390.1862,609.37531 390.25097,609.74194 398.37052,620.91912 C 406.25657,631.77483 416.37801,641.94947 416.37801,639.02129 C 416.37801,638.28383 413.89663,627.97832 410.86382,616.12015 C 405.08638,593.53055 398.36936,579.96641 382.49191,558.82676 C 377.24794,551.84482 369.139,538.14616 364.47207,528.38529 C 359.8051,518.62442 352.61451,506.14475 348.4929,500.65265 C 341.17843,490.90596 338.8091,483.08905 343.17353,483.10288 C 344.36945,483.10668 349.12397,490.33639 353.73916,499.16885 C 358.35435,508.00134 368.21874,523.32769 375.66003,533.2274 C 383.10132,543.12711 393.87136,558.4024 399.59346,567.17242 C 410.71689,584.22086 432.54788,645.05662 428.78465,648.51857 C 427.54194,649.66178 423.6757,651.45675 420.193,652.50733 C 414.94941,654.08915 411.70974,651.61391 401.34828,638.1093 z M 304.38145,424.38744 C 296.35383,415.26033 283.0154,393.96059 283.0154,390.26864 C 283.0154,388.57642 280.31509,381.89884 277.01477,375.42965 C 273.71443,368.96043 271.74947,362.93212 272.64822,362.03337 C 275.45501,359.22655 285.29993,370.08018 287.32489,378.21382 C 289.74105,387.91853 304.78716,414.52475 310.57609,419.32914 C 315.19855,423.16546 316.49365,430.91061 312.51263,430.91061 C 311.19602,430.91061 307.53701,427.97518 304.38145,424.38744 z M 267.93423,320.00614 C 260.80058,305.25073 252.76232,286.65969 250.07138,278.69272 C 247.38044,270.72579 240.01207,257.03188 233.69718,248.26181 C 218.82324,227.60504 212.56567,216.2736 214.799,214.04024 C 218.94078,209.89849 252.76183,261.83233 260.84775,284.75026 C 263.10932,291.16024 268.83446,304.16368 273.57025,313.64675 C 278.30604,323.12979 283.04575,334.47639 284.10291,338.86141 C 287.94071,354.7801 280.61696,346.23944 267.93423,320.00614 z M 224.16308,188.15099 C 223.46502,186.92904 221.21844,180.73904 219.17068,174.39542 C 217.12293,168.05179 209.44997,153.84192 202.11966,142.8179 C 179.33776,108.55647 178.15402,106.44177 180.04499,103.38211 C 181.05756,101.74375 182.98479,100.40326 184.32776,100.40326 C 187.39533,100.40326 196.83088,116.24465 201.14414,128.63635 C 202.94147,133.79995 208.1756,143.58471 212.77554,150.38026 C 223.28103,165.90013 231.52754,186.60558 228.05745,188.75022 C 226.61362,189.64256 224.86115,189.37291 224.16308,188.15099 z M 164.47116,150.71996 C 158.78406,142.65161 156.09225,136.29192 157.68869,134.69548 C 159.2851,133.09907 161.91939,133.95694 164.32626,136.85703 C 168.30087,141.64617 176.19936,161.79871 174.69239,163.30568 C 174.25685,163.74119 169.65732,158.07763 164.47116,150.71996 z "
       style="fill:#000000;fill-opacity:1;stroke:none" />
  </g>
</svg>
